<?xml version="1.0" encoding="UTF-8"?>
<svg xmlns="http://www.w3.org/2000/svg" viewBox="0 0 100 100" width="40" height="40">
  <!-- Gradients and filters -->
  <defs>
    <linearGradient id="glowGradient" x1="0%" y1="0%" x2="100%" y2="100%">
      <stop offset="0%" stop-color="#FF9FF3" />
      <stop offset="100%" stop-color="#A78BFA" />
    </linearGradient>
    <linearGradient id="lensGradient" x1="20%" y1="20%" x2="80%" y2="80%">
      <stop offset="0%" stop-color="#4F8FF7" />
      <stop offset="100%" stop-color="#3A7BD5" />
    </linearGradient>
    <linearGradient id="rayGradient" x1="0%" y1="0%" x2="100%" y2="100%">
      <stop offset="0%" stop-color="#FFFFFF" />
      <stop offset="100%" stop-color="#FFECB3" />
    </linearGradient>
    <filter id="glow" x="-30%" y="-30%" width="160%" height="160%">
      <feGaussianBlur stdDeviation="2.5" result="blur" />
      <feFlood flood-color="#FF9FF3" flood-opacity="0.6" />
      <feComposite in2="blur" operator="in" />
      <feComposite in="SourceGraphic" />
    </filter>
    <filter id="softShadow" x="-10%" y="-10%" width="120%" height="120%">
      <feDropShadow dx="0" dy="1" stdDeviation="1" flood-opacity="0.3" />
    </filter>
  </defs>

  <!-- Background circle -->
  <circle cx="50" cy="50" r="46" fill="#F7F9FC" filter="url(#softShadow)" />
  
  <!-- Main lens/aperture shape -->
  <circle cx="50" cy="50" r="38" fill="url(#lensGradient)" filter="url(#softShadow)" />
  <circle cx="50" cy="50" r="34" fill="#2D3748" />
  <circle cx="50" cy="50" r="30" fill="#1A202C" />
  <circle cx="50" cy="50" r="25" fill="#171923" />
  
  <!-- Aperture blades -->
  <path d="M50,20 L58,35 L42,35 Z" fill="#4A5568" opacity="0.7" />
  <path d="M50,20 L58,35 L42,35 Z" fill="#4A5568" opacity="0.7" transform="rotate(60, 50, 50)" />
  <path d="M50,20 L58,35 L42,35 Z" fill="#4A5568" opacity="0.7" transform="rotate(120, 50, 50)" />
  <path d="M50,20 L58,35 L42,35 Z" fill="#4A5568" opacity="0.7" transform="rotate(180, 50, 50)" />
  <path d="M50,20 L58,35 L42,35 Z" fill="#4A5568" opacity="0.7" transform="rotate(240, 50, 50)" />
  <path d="M50,20 L58,35 L42,35 Z" fill="#4A5568" opacity="0.7" transform="rotate(300, 50, 50)" />
  
  <!-- Central glow -->
  <circle cx="50" cy="50" r="15" fill="url(#glowGradient)" filter="url(#glow)" />
  
  <!-- Lens flare highlight -->
  <circle cx="50" cy="50" r="7" fill="#FFFFFF" opacity="0.95" />
  <circle cx="55" cy="45" r="3" fill="#FFFFFF" opacity="0.7" />
  
  <!-- Light rays -->
  <g opacity="0.6">
    <path d="M50,15 L52,5 L48,5 Z" fill="url(#rayGradient)" filter="url(#glow)" />
    <path d="M50,15 L52,5 L48,5 Z" fill="url(#rayGradient)" filter="url(#glow)" transform="rotate(30, 50, 50)" />
    <path d="M50,15 L52,5 L48,5 Z" fill="url(#rayGradient)" filter="url(#glow)" transform="rotate(60, 50, 50)" />
    <path d="M50,15 L52,5 L48,5 Z" fill="url(#rayGradient)" filter="url(#glow)" transform="rotate(90, 50, 50)" />
    <path d="M50,15 L52,5 L48,5 Z" fill="url(#rayGradient)" filter="url(#glow)" transform="rotate(120, 50, 50)" />
    <path d="M50,15 L52,5 L48,5 Z" fill="url(#rayGradient)" filter="url(#glow)" transform="rotate(150, 50, 50)" />
    <path d="M50,15 L52,5 L48,5 Z" fill="url(#rayGradient)" filter="url(#glow)" transform="rotate(180, 50, 50)" />
    <path d="M50,15 L52,5 L48,5 Z" fill="url(#rayGradient)" filter="url(#glow)" transform="rotate(210, 50, 50)" />
    <path d="M50,15 L52,5 L48,5 Z" fill="url(#rayGradient)" filter="url(#glow)" transform="rotate(240, 50, 50)" />
    <path d="M50,15 L52,5 L48,5 Z" fill="url(#rayGradient)" filter="url(#glow)" transform="rotate(270, 50, 50)" />
    <path d="M50,15 L52,5 L48,5 Z" fill="url(#rayGradient)" filter="url(#glow)" transform="rotate(300, 50, 50)" />
    <path d="M50,15 L52,5 L48,5 Z" fill="url(#rayGradient)" filter="url(#glow)" transform="rotate(330, 50, 50)" />
  </g>
  
  <!-- Orbit accent -->
  <ellipse cx="50" cy="50" rx="42" ry="16" fill="none" stroke="#A78BFA" stroke-width="0.8" opacity="0.5" transform="rotate(30, 50, 50)" />
  <ellipse cx="50" cy="50" rx="42" ry="16" fill="none" stroke="#FF9FF3" stroke-width="0.8" opacity="0.5" transform="rotate(-30, 50, 50)" />
  
  <!-- Small light particles -->
  <circle cx="30" cy="35" r="1.2" fill="#FFFFFF" filter="url(#glow)" />
  <circle cx="70" cy="35" r="1.2" fill="#FFFFFF" filter="url(#glow)" />
  <circle cx="36" cy="70" r="1.2" fill="#FFFFFF" filter="url(#glow)" />
  <circle cx="64" cy="70" r="1.2" fill="#FFFFFF" filter="url(#glow)" />
  <circle cx="42" cy="25" r="0.8" fill="#FFFFFF" filter="url(#glow)" />
  <circle cx="58" cy="25" r="0.8" fill="#FFFFFF" filter="url(#glow)" />
  <circle cx="25" cy="58" r="0.8" fill="#FFFFFF" filter="url(#glow)" />
  <circle cx="75" cy="58" r="0.8" fill="#FFFFFF" filter="url(#glow)" />
</svg> 