<?xml version="1.0" encoding="UTF-8"?>
<svg width="200" height="200" viewBox="0 0 200 200" fill="none" xmlns="http://www.w3.org/2000/svg">
  <!-- Document outline -->
  <path d="M55 25H120L145 50V175C145 177.761 142.761 180 140 180H60C57.2386 180 55 177.761 55 175V30C55 27.2386 57.2386 25 60 25Z" stroke="#9CA3AF" stroke-width="4" fill="none"/>
  
  <!-- Page fold -->
  <path d="M120 25V50H145" stroke="#9CA3AF" stroke-width="4" fill="none"/>
  
  <!-- X mark -->
  <line x1="80" y1="80" x2="120" y2="120" stroke="#EF4444" stroke-width="6" stroke-linecap="round"/>
  <line x1="120" y1="80" x2="80" y2="120" stroke="#EF4444" stroke-width="6" stroke-linecap="round"/>
  
  <!-- Document lines -->
  <line x1="70" y1="140" x2="130" y2="140" stroke="#9CA3AF" stroke-width="3" stroke-linecap="round"/>
  <line x1="70" y1="155" x2="110" y2="155" stroke="#9CA3AF" stroke-width="3" stroke-linecap="round"/>
  
  <!-- Question mark -->
  <circle cx="150" cy="50" r="20" fill="#6B7280" opacity="0.8"/>
  <path d="M150 65V60M150 55V40C155 40 158 45 150 45C142 45 145 50 150 50" stroke="white" stroke-width="4" stroke-linecap="round"/>
</svg> 