<?xml version="1.0" encoding="UTF-8"?>
<svg xmlns="http://www.w3.org/2000/svg" viewBox="0 0 24 24" width="24" height="24" fill="currentColor">
  <path d="M12 17c-2.76 0-5-2.24-5-5s2.24-5 5-5 5 2.24 5 5-2.24 5-5 5zm0-8c-1.65 0-3 1.35-3 3s1.35 3 3 3 3-1.35 3-3-1.35-3-3-3zm0-3V3c0-.55-.45-1-1-1s-1 .45-1 1v3c0 .55.45 1 1 1s1-.45 1-1zm0 17v-3c0-.55-.45-1-1-1s-1 .45-1 1v3c0 .55.45 1 1 1s1-.45 1-1zM5.99 4.58c-.39-.39-1.03-.39-1.41 0-.39.39-.39 1.03 0 1.41l2.12 2.12c.39.39 1.03.39 1.41 0 .39-.39.39-1.03 0-1.41L5.99 4.58zm12.42 12.42c-.39-.39-1.03-.39-1.41 0-.39.39-.39 1.03 0 1.41l2.12 2.12c.39.39 1.03.39 1.41 0 .39-.39.39-1.03 0-1.41l-2.12-2.12zM3 13H0c-.55 0-1-.45-1-1s.45-1 1-1h3c.55 0 1 .45 1 1s-.45 1-1 1zm18-2h3c.55 0 1 .45 1 1s-.45 1-1 1h-3c-.55 0 1-.45 1-1s.45-1 1-1zM4.58 18.01l2.12-2.12c.39-.39.39-1.03 0-1.41-.39-.39-1.03-.39-1.41 0l-2.12 2.12c-.39.39-.39 1.03 0 1.41.39.39 1.03.39 1.41 0zm14.84-14.84l-2.12 2.12c-.39.39-.39 1.03 0 1.41.39.39 1.03.39 1.41 0l2.12-2.12c.39-.39.39-1.03 0-1.41-.39-.39-1.03-.39-1.41 0z"></path>
</svg> 