<svg xmlns="http://www.w3.org/2000/svg" viewBox="0 0 100 100" width="40" height="40">
  <!-- Gradients -->
  <defs>
    <linearGradient id="bgGradient" x1="0%" y1="0%" x2="100%" y2="100%">
      <stop offset="0%" stop-color="#66BB6A" />
      <stop offset="100%" stop-color="#43A047" />
    </linearGradient>
    <linearGradient id="lensGradient" x1="30%" y1="30%" x2="70%" y2="70%">
      <stop offset="0%" stop-color="#546E7A" />
      <stop offset="100%" stop-color="#37474F" />
    </linearGradient>
    <linearGradient id="innerLensGradient" x1="40%" y1="40%" x2="60%" y2="60%">
      <stop offset="0%" stop-color="#263238" />
      <stop offset="100%" stop-color="#10171B" />
    </linearGradient>
    <linearGradient id="photoGradient" x1="0%" y1="0%" x2="100%" y2="100%">
      <stop offset="0%" stop-color="#BBDEFB" />
      <stop offset="100%" stop-color="#64B5F6" />
    </linearGradient>
    <filter id="shadow" x="-20%" y="-20%" width="140%" height="140%">
      <feDropShadow dx="0" dy="2" stdDeviation="2" flood-opacity="0.3" />
    </filter>
  </defs>

  <!-- Background circle with subtle shadow -->
  <circle cx="50" cy="50" r="45" fill="url(#bgGradient)" filter="url(#shadow)" />
  
  <!-- Camera body with better shadows and details -->
  <rect x="22" y="35" width="56" height="35" rx="6" ry="6" fill="#263238" filter="url(#shadow)" />
  <rect x="24" y="37" width="52" height="31" rx="4" ry="4" fill="#37474F" />
  
  <!-- Camera details -->
  <rect x="26" y="40" width="8" height="2" rx="1" fill="#78909C" />
  <rect x="66" y="40" width="6" height="2" rx="1" fill="#78909C" />
  
  <!-- Camera lens with better depth -->
  <circle cx="50" cy="52.5" r="14" fill="#263238" />
  <circle cx="50" cy="52.5" r="12" fill="url(#lensGradient)" />
  <circle cx="50" cy="52.5" r="8" fill="url(#innerLensGradient)" />
  <circle cx="50" cy="52.5" r="6" fill="#10171B" />
  <circle cx="47" cy="49.5" r="1.5" fill="#FFFFFF" opacity="0.8" />
  <circle cx="52" cy="54.5" r="0.8" fill="#FFFFFF" opacity="0.5" />
  
  <!-- Camera flash with detail -->
  <rect x="35" y="34" width="30" height="6" rx="2" ry="2" fill="#455A64" />
  <rect x="38" y="34.5" width="24" height="5" rx="1.5" ry="1.5" fill="#607D8B" />
  <rect x="45" y="35.5" width="10" height="3" rx="1" ry="1" fill="#CFD8DC" />
  
  <!-- Photo/frame with better shadow and details -->
  <rect x="60" y="30" width="28" height="22" rx="2" ry="2" fill="#FFFFFF" transform="rotate(15, 60, 30)" filter="url(#shadow)" />
  <rect x="62" y="32" width="24" height="18" rx="1" ry="1" fill="#ECEFF1" transform="rotate(15, 60, 30)" />
  
  <!-- Inner photo details - landscape scene -->
  <rect x="63" y="33" width="18" height="12" fill="url(#photoGradient)" transform="rotate(15, 60, 30)" />
  
  <!-- Sun -->
  <circle cx="76" cy="36" r="2.5" fill="#FFC107" transform="rotate(15, 60, 30)" />
  
  <!-- Mountains -->
  <polygon points="63,44 69,39 72,41 78,37 81,44" fill="#388E3C" transform="rotate(15, 60, 30)" />
  
  <!-- Camera shutter button -->
  <circle cx="74" cy="44" r="3" fill="#EF5350" stroke="#B71C1C" stroke-width="0.5" />
</svg> 