<svg xmlns="http://www.w3.org/2000/svg" viewBox="0 0 100 100" width="32" height="32">
  <!-- Definitions -->
  <defs>
    <radialGradient id="glowGradient" cx="50%" cy="50%" r="50%" fx="50%" fy="50%">
      <stop offset="0%" stop-color="#FFFFFF" stop-opacity="0.9" />
      <stop offset="50%" stop-color="#FFD180" stop-opacity="0.7" />
      <stop offset="100%" stop-color="#FF9800" stop-opacity="0.2" />
    </radialGradient>
    <linearGradient id="lensGradient" x1="0%" y1="0%" x2="100%" y2="100%">
      <stop offset="0%" stop-color="#64B5F6" stop-opacity="0.8" />
      <stop offset="100%" stop-color="#1976D2" stop-opacity="0.9" />
    </linearGradient>
    <filter id="glow" x="-20%" y="-20%" width="140%" height="140%">
      <feGaussianBlur stdDeviation="3" result="blur" />
      <feComposite in="SourceGraphic" in2="blur" operator="over" />
    </filter>
  </defs>

  <!-- Background -->
  <circle cx="50" cy="50" r="50" fill="#F7F9FC" />
  
  <!-- Camera Lens / Light Source -->
  <circle cx="50" cy="50" r="35" fill="url(#lensGradient)" />
  <circle cx="50" cy="50" r="30" fill="#0D47A1" opacity="0.8" />
  <circle cx="50" cy="50" r="25" fill="#1E1E1E" />
  
  <!-- Simplified Aperture -->
  <path d="M50 25 L53 30 L58 28 L56 33 L60 37 L55 39 L53 44 L50 40 L46 44 L44 39 L39 37 L43 33 L41 28 L46 30 Z" fill="#121212" />
  
  <!-- Center Glow -->
  <circle cx="50" cy="50" r="15" fill="url(#glowGradient)" filter="url(#glow)" />
  <circle cx="42" cy="42" r="4" fill="#FFFFFF" opacity="0.7" />
  
  <!-- Light Particles -->
  <circle cx="65" cy="35" r="2" fill="#FFFFFF" opacity="0.8" />
  <circle cx="30" cy="60" r="1.5" fill="#FFFFFF" opacity="0.7" />
  <circle cx="40" cy="70" r="1" fill="#FFFFFF" opacity="0.6" />
  <circle cx="70" cy="50" r="1.2" fill="#FFFFFF" opacity="0.7" />
</svg> 